<svg width="16" height="16" viewBox="0 0 16 16" fill="none" xmlns="http://www.w3.org/2000/svg">
<path d="M4.46705 8.5216H6.22091V15.7419C6.22091 15.8845 6.33642 16 6.47897 16H9.4527C9.59526 16 9.71077 15.8845 9.71077 15.7419V8.55561H11.727C11.8581 8.55561 11.9684 8.45724 11.9833 8.32702L12.2896 5.66885C12.298 5.59572 12.2748 5.52248 12.2259 5.46761C12.1769 5.4127 12.1068 5.38126 12.0332 5.38126H9.71087V3.71499C9.71087 3.2127 9.98132 2.95799 10.5148 2.95799C10.5908 2.95799 12.0332 2.95799 12.0332 2.95799C12.1758 2.95799 12.2913 2.84243 12.2913 2.69992V0.259974C12.2913 0.117419 12.1758 0.00190968 12.0332 0.00190968H9.9406C9.92584 0.0011871 9.89306 0 9.84475 0C9.48166 0 8.21956 0.0712774 7.22261 0.988439C6.11799 2.0048 6.27154 3.22173 6.30824 3.43272V5.38121H4.46705C4.32449 5.38121 4.20898 5.49672 4.20898 5.63928V8.26348C4.20898 8.40604 4.32449 8.5216 4.46705 8.5216Z" fill="#0583D2"/>
</svg>
