<svg width="24" height="24" viewBox="0 0 24 24" fill="none" xmlns="http://www.w3.org/2000/svg">
<path fill-rule="evenodd" clip-rule="evenodd" d="M14.909 3.63756C15.6388 3.65089 16.3683 3.66422 17.0973 3.67021C20.92 4.48127 20.8135 8.99583 20.7351 12.3191C20.7343 12.3523 20.7336 12.3855 20.7328 12.4185C20.7258 12.6925 20.7227 12.9751 20.7196 13.263C20.7043 14.6771 20.6876 16.2172 20.1943 17.4713C19.4458 19.3862 18.0513 19.8944 16.3763 20.5047L16.3656 20.5086C15.859 20.5286 15.3137 20.562 14.7437 20.5969C11.3787 20.8032 7.1501 21.0624 4.90698 18.9255C4.11542 18.1708 3.69202 17.1815 3.47576 16.0816C3.49619 15.3373 3.48029 14.5066 3.46357 13.6336C3.44267 12.542 3.4205 11.3842 3.46652 10.2464C3.48729 9.94301 3.50437 9.64713 3.52101 9.35872C3.5228 9.32779 3.52458 9.29695 3.52636 9.2662C3.62305 8.06047 3.82546 6.90535 4.22586 5.91599C5.75829 3.84049 7.78308 3.68406 10.3786 3.6196C11.8892 3.58238 13.3998 3.60998 14.909 3.63756ZM19.2136 13.4754C19.4889 10.1318 19.8828 5.3486 16.0713 4.85796C13.7473 4.55886 5.36266 3.56951 5.32129 7.56378C5.2983 7.59601 5.28454 7.63286 5.27531 7.68346C4.97159 10.3525 4.7737 13.896 5.4732 16.5145C5.91497 18.1711 7.16667 18.6497 8.76356 18.8798C11.1519 19.2295 14.6033 19.4919 16.9457 18.7049C18.7266 18.1067 19.0349 16.7722 19.1039 15.0465C19.1222 14.5851 19.1661 14.0516 19.2136 13.4754Z" fill="#0583D2"/>
<path d="M17.9256 7.292C17.9349 6.19211 16.5635 5.84241 15.8272 6.51891C15.6293 6.70295 15.5372 6.98367 15.5234 7.28738C15.597 7.67854 15.8318 8.06509 16.1355 8.28597C16.8488 8.78757 17.9164 8.12031 17.9256 7.292Z" fill="#0583D2"/>
<path fill-rule="evenodd" clip-rule="evenodd" d="M8.85092 8.92479C10.7607 6.81253 14.3134 7.04727 15.8872 9.43101C17.1665 11.3684 16.6512 13.9409 14.8933 15.3812C12.9236 16.9919 10.1809 16.3476 8.58867 14.5713C8.54259 14.5161 8.49199 14.4838 8.43677 14.4655C7.45654 12.7627 7.54861 10.3652 8.85092 8.92479ZM13.7296 14.5403C12.1512 15.5066 10.1724 14.2642 9.61552 12.6995C9.25197 11.6732 9.61552 10.1868 10.545 9.63925C13.1728 7.28774 16.9187 12.5891 13.7296 14.5403Z" fill="#0583D2"/>
</svg>
