<svg width="16" height="16" viewBox="0 0 16 16" fill="none" xmlns="http://www.w3.org/2000/svg">
<g clip-path="url(#clip0_313_4391)">
<path d="M3.97399 5.14648H0.761971C0.619416 5.14648 0.503906 5.26205 0.503906 5.40455V15.7234C0.503906 15.866 0.619416 15.9815 0.761971 15.9815H3.97399C4.11655 15.9815 4.23206 15.866 4.23206 15.7234V5.40455C4.23206 5.26205 4.11655 5.14648 3.97399 5.14648Z" fill="#BBE3FF"/>
<path d="M2.36954 0.0175781C1.20081 0.0175781 0.25 0.96736 0.25 2.13479C0.25 3.30274 1.20081 4.25289 2.36954 4.25289C3.53733 4.25289 4.48737 3.30269 4.48737 2.13479C4.48742 0.96736 3.53733 0.0175781 2.36954 0.0175781Z" fill="#BBE3FF"/>
<path d="M12.1448 4.89062C10.8548 4.89062 9.9011 5.4452 9.32267 6.07535V5.40515C9.32267 5.26265 9.20717 5.14709 9.06461 5.14709H5.98853C5.84598 5.14709 5.73047 5.26265 5.73047 5.40515V15.724C5.73047 15.8666 5.84598 15.9821 5.98853 15.9821H9.19354C9.33609 15.9821 9.4516 15.8666 9.4516 15.724V10.6186C9.4516 8.89816 9.91891 8.22791 11.1182 8.22791C12.4243 8.22791 12.5281 9.30239 12.5281 10.7071V15.7241C12.5281 15.8666 12.6436 15.9821 12.7862 15.9821H15.9924C16.1349 15.9821 16.2504 15.8666 16.2504 15.7241V10.064C16.2504 7.5058 15.7626 4.89062 12.1448 4.89062Z" fill="#BBE3FF"/>
</g>
<defs>
<clipPath id="clip0_313_4391">
<rect width="16" height="16" fill="white"/>
</clipPath>
</defs>
</svg>
