<svg width="135" height="60" viewBox="0 0 135 60" fill="none" xmlns="http://www.w3.org/2000/svg">
<path d="M18.112 56.3893L19.0672 55.0848C19.7194 55.7836 20.7678 56.4126 22.0957 56.4126C23.4702 56.4126 24.006 55.737 24.006 55.0848C24.006 53.0813 18.4382 54.316 18.4382 50.7982C18.4382 49.2141 19.8126 47.9794 21.9326 47.9794C23.4003 47.9794 24.635 48.4686 25.4969 49.3306L24.5418 50.5886C23.773 49.8198 22.7713 49.4936 21.7462 49.4936C20.7678 49.4936 20.1388 49.9829 20.1388 50.6817C20.1388 52.4756 25.7066 51.3806 25.7066 54.9217C25.7066 56.5058 24.5651 57.9036 22.0025 57.9036C20.232 57.9269 18.974 57.2746 18.112 56.3893Z" fill="#D5D1C6"/>
<path d="M33.8139 57.7406L33.115 55.9002H28.7353L28.0364 57.7406H26.1028L29.8535 48.1658H31.9502L35.7009 57.7406H33.8139ZM30.9251 49.8431L29.2012 54.4092H32.6491L30.9251 49.8431Z" fill="#D5D1C6"/>
<path d="M35.8406 52.9647C35.8406 49.9595 38.077 48.0026 40.8726 48.0026C42.7363 48.0026 43.9477 48.8879 44.7165 49.9828L43.342 50.7749C42.8295 50.0527 41.9209 49.4936 40.8493 49.4936C38.9623 49.4936 37.5412 50.938 37.5412 52.9414C37.5412 54.9449 38.939 56.3893 40.8493 56.3893C41.8277 56.3893 42.6897 55.9467 43.109 55.5273V54.0597H40.2436V52.592H44.7864V56.1563C43.8545 57.2047 42.5033 57.9036 40.8493 57.9036C38.077 57.9269 35.8406 55.97 35.8406 52.9647Z" fill="#D5D1C6"/>
<path d="M46.5567 57.7406V48.1658H53.1263V49.6334H48.234V52.1029H53.0098V53.5705H48.234V56.2496H53.103V57.7173H46.5567V57.7406Z" fill="#D5D1C6"/>
<path d="M54.8271 57.7406V48.1658H59.0437C61.0472 48.1658 62.1654 49.5403 62.1654 51.171C62.1654 52.8017 61.0472 54.1529 59.0437 54.1529H56.5044V57.7406H54.8271ZM60.4415 51.171C60.4415 50.2624 59.7659 49.6567 58.8108 49.6567H56.5044V52.6853H58.8108C59.7659 52.6853 60.4415 52.0796 60.4415 51.171Z" fill="#D5D1C6"/>
<path d="M69.2009 57.7406L68.502 55.9002H64.1223L63.4234 57.7406H61.5131L65.2638 48.1658H67.3604L71.1112 57.7406H69.2009ZM66.3121 49.8431L64.5882 54.4092H68.036L66.3121 49.8431Z" fill="#D5D1C6"/>
<path d="M73.5109 57.7405V49.6566H70.5988V48.189H78.0769V49.6566H75.1882V57.7405H73.5109Z" fill="#D5D1C6"/>
<path d="M86.1606 57.7406V53.5472H81.1752V57.7406H79.4979V48.1658H81.1752V52.0796H86.1606V48.1658H87.8379V57.7406H86.1606Z" fill="#D5D1C6"/>
<path d="M98.2293 57.7773L96.3395 54.3678H94.8393V57.7773H92.7936V48.1722H97.2844C99.2912 48.1722 100.528 49.4873 100.528 51.27C100.528 52.9553 99.447 53.8807 98.4144 54.1242L100.587 57.787H98.2293V57.7773ZM98.4242 51.2505C98.4242 50.4614 97.8007 49.9646 97.0019 49.9646H94.8393V52.5559H97.0019C97.8104 52.5559 98.4242 52.0688 98.4242 51.2505Z" fill="#D5D1C6"/>
<path d="M102.058 57.7773V48.1722H108.857V49.9646H104.104V51.9811H108.76V53.7833H104.104V55.9751H108.857V57.7773H102.058Z" fill="#D5D1C6"/>
<path d="M110.455 57.7773V48.1722H114.946C117.031 48.1722 118.17 49.5847 118.17 51.27C118.17 52.9455 117.021 54.3483 114.946 54.3483H112.501V57.7773H110.455ZM116.086 51.2602C116.086 50.4517 115.462 49.9646 114.663 49.9646H112.501V52.5461H114.663C115.472 52.5461 116.086 52.059 116.086 51.2602Z" fill="#D5D1C6"/>
<path d="M119.368 57.7773V48.1722H121.424V55.9751H125.496V57.7773H119.368Z" fill="#D5D1C6"/>
<path d="M127.727 57.7773V53.8417L124.035 48.1722H126.373L128.749 52.0201L131.126 48.1722H133.445L129.772 53.8515V57.787H127.727V57.7773Z" fill="#D5D1C6"/>
<path d="M4.58449 50.3835V52.1444C4.58449 52.3478 4.57826 52.5482 4.56579 52.7454C4.55644 52.9395 4.54709 53.0913 4.53774 53.2009H4.58449C4.72474 52.9755 4.91952 52.7861 5.16885 52.6327C5.42129 52.4762 5.74385 52.3979 6.13654 52.3979C6.7505 52.3979 7.24448 52.6249 7.61847 53.0788C7.99246 53.5296 8.17945 54.1979 8.17945 55.0838C8.17945 55.6723 8.09374 56.1669 7.92233 56.5676C7.75092 56.9683 7.50939 57.2719 7.19773 57.4785C6.88919 57.682 6.52611 57.7837 6.10849 57.7837C5.7158 57.7837 5.39791 57.7117 5.15482 57.5677C4.91485 57.4206 4.72629 57.25 4.58917 57.0559H4.50969L4.30867 57.6898H3.4859V50.3835H4.58449ZM5.8467 53.2948C5.53504 53.2948 5.28728 53.3574 5.1034 53.4826C4.92264 53.6078 4.79174 53.7956 4.71071 54.0461C4.62968 54.2934 4.58761 54.608 4.58449 54.9899V55.0885C4.58449 55.6676 4.67487 56.1105 4.85563 56.4173C5.03951 56.7241 5.37298 56.8775 5.85605 56.8775C6.23939 56.8775 6.5339 56.7225 6.7396 56.4126C6.94529 56.0996 7.04814 55.6519 7.04814 55.0697C7.04814 54.4812 6.94529 54.0382 6.7396 53.7409C6.53702 53.4435 6.23939 53.2948 5.8467 53.2948Z" fill="#D5D1C6"/>
<path d="M8.67031 52.4918H9.86707L10.9283 55.4594C10.975 55.594 11.0171 55.7271 11.0545 55.8586C11.095 55.9869 11.1293 56.1137 11.1573 56.2389C11.1885 56.3641 11.2134 56.4893 11.2321 56.6145H11.2602C11.2913 56.4518 11.335 56.2702 11.3911 56.0699C11.4503 55.8664 11.5157 55.6629 11.5874 55.4594L12.6065 52.4918H13.7893L11.5687 58.4035C11.4409 58.7416 11.2835 59.0296 11.0966 59.2675C10.9127 59.5086 10.6945 59.6901 10.4421 59.8122C10.1896 59.9374 9.90135 60 9.57723 60C9.4214 60 9.28583 59.9906 9.17052 59.9718C9.0552 59.9562 8.95703 59.939 8.876 59.9202V59.0374C8.94145 59.0531 9.02404 59.0672 9.12377 59.0797C9.2235 59.0922 9.32635 59.0985 9.43231 59.0985C9.62865 59.0985 9.79851 59.0593 9.94187 58.9811C10.0852 58.9028 10.2068 58.7917 10.3065 58.6477C10.4062 58.5068 10.4888 58.3456 10.5543 58.1641L10.7366 57.6757L8.67031 52.4918Z" fill="#D5D1C6"/>
<path d="M19.2158 38.4831V39.0498H0V38.4831C2.00916 38.277 3.91528 37.1952 3.91528 32.7647V9.01545C3.91528 4.585 2.00916 3.76073 0 3.55466V2.98797H17.8763C28.5403 2.98797 33.5375 7.77904 33.5375 14.1671C33.5375 20.8128 27.7676 26.0675 17.5157 26.0675H14.9399V32.6617C14.9399 37.1436 17.0006 38.277 19.2158 38.4831ZM14.9399 4.17286V24.7281H15.6611C20.4007 24.7281 22.7704 20.6582 22.7704 14.1671C22.7704 7.46994 20.2976 4.17286 16.2278 4.17286H14.9399Z" fill="white"/>
<path d="M46.663 36.0103C47.3327 36.0103 47.8994 35.8557 48.5176 35.4436C48.363 34.7739 48.3115 34.0011 48.3115 33.1768V25.6039C44.7569 26.8403 43.4174 29.2616 43.4174 32.0435C43.4174 34.7739 44.9629 36.0103 46.663 36.0103ZM54.1329 39.9771C51.4541 39.9771 49.5994 38.9467 48.7752 36.577C46.663 38.7407 43.572 40.0286 40.8931 40.0286C37.8021 40.0286 34.7626 38.1225 34.7626 34.4648C34.7626 30.7555 37.6475 27.3039 48.3115 24.6766V18.7006C48.3115 16.0217 47.6933 15.249 46.3539 15.249C43.9841 15.249 45.272 18.34 44.0871 20.9158C43.2629 22.7704 41.6143 23.5947 39.9658 23.5947C37.8536 23.5947 36.2051 22.1522 36.2051 19.9885C36.2051 16.846 39.5021 14.3732 46.766 14.3732C54.3905 14.3732 58.2028 17.8248 58.2028 22.7189V34.9284C58.2028 35.7527 58.7694 36.3709 59.5937 36.3709C60.2119 36.3709 60.9332 36.0103 61.4998 35.2375L62.0665 35.6497C60.7271 38.174 57.6876 39.9771 54.1329 39.9771Z" fill="white"/>
<path d="M80.1437 16.4854H74.992V31.2707C74.992 33.5375 76.2284 34.7223 77.5679 34.7223C78.6497 34.7223 79.577 34.2072 80.3498 33.0738L81.0195 33.4859C79.1649 36.9891 75.6102 39.9255 71.5404 39.9255C67.7281 39.9255 65.2038 37.4012 65.2038 33.7435V16.5884H62.5765V16.0217C66.9554 14.7338 72.3647 9.22151 74.2193 4.37893H74.992V15.3005H80.1437V16.4854Z" fill="white"/>
<path d="M96.1678 38.5861V39.0498H82.2068V38.5346C83.3402 38.38 84.4735 37.4527 84.4735 35.186V6.95477C84.4735 4.12135 83.0311 3.55466 81.6916 3.55466V2.98797L93.9011 0L94.3132 0.154548V18.7006C96.58 16.1763 99.6195 14.3732 102.917 14.3732C106.78 14.3732 109.614 16.6915 109.614 21.2249V35.186C109.614 37.4527 110.747 38.38 112.138 38.5346V39.0498H97.8679V38.5861C99.2074 38.4316 99.8255 37.7103 99.8255 35.3405V21.6886C99.8255 19.7309 98.6922 18.7521 97.1982 18.7521C96.1678 18.7521 95.2405 19.2158 94.3132 20.04V35.3405C94.3132 37.6073 95.1375 38.4316 96.1678 38.5861Z" fill="white"/>
<path d="M124.052 38.9982C126.009 38.9982 127.452 37.7103 127.452 36.2163C127.452 34.2072 124.567 32.9193 121.527 31.3222C118.076 29.4676 114.367 27.2009 114.367 22.925C114.367 18.2885 118.385 14.3732 125.391 14.3732C128.534 14.3732 131.728 15.0429 133.84 16.1763L132.14 22.925L131.367 22.822C129.719 17.8248 127.04 15.4035 124.103 15.4035C122.3 15.4035 121.064 16.4854 121.064 17.9279C121.064 19.937 123.537 21.1734 126.422 22.6159C130.285 24.5735 134.87 26.8403 134.87 31.6829C134.87 36.577 130.594 40.0286 123.124 40.0286C119.879 40.0286 115.912 39.4104 113.697 38.5861L115.809 30.7556L116.685 30.8586C117.612 36.2163 120.961 38.9982 124.052 38.9982Z" fill="white"/>
</svg>
