<svg width="16" height="16" viewBox="0 0 16 16" fill="none" xmlns="http://www.w3.org/2000/svg">
<g clip-path="url(#clip0_313_4419)">
<path fill-rule="evenodd" clip-rule="evenodd" d="M16.1819 3.6674C16.3013 2.99748 16.2986 2.30862 15.8849 1.78766C15.3076 1.0572 14.0788 1.03032 13.2371 1.15923C12.5523 1.26392 10.2361 2.28585 9.4479 4.73236C10.8443 4.62623 11.5761 4.833 11.4418 6.3704C11.3855 7.01365 11.0605 7.71835 10.6979 8.39392C10.2789 9.17275 9.4935 10.702 8.46357 9.59969C7.53589 8.60758 7.60554 6.71013 7.39344 5.44655C7.2753 4.73764 7.1504 3.85417 6.91813 3.125C6.71797 2.49795 6.25898 1.74195 5.69764 1.57811C5.09476 1.40094 4.34937 1.67747 3.91167 1.93534C2.51785 2.75438 1.4556 3.91983 0.25 4.88127C0.446267 5.30175 0.553308 5.57418 0.905096 5.62522C1.73502 5.74746 2.52595 4.85178 3.07769 5.78367C3.41337 6.35301 3.51822 6.97733 3.733 7.5912C4.02031 8.4087 4.24185 9.29894 4.47684 10.239C4.87428 11.8314 5.36314 14.2107 6.73946 14.7936C7.44165 15.0918 8.49718 14.6928 9.03158 14.3759C10.479 13.5193 11.607 12.2774 12.5724 11.0138C14.7799 8.02331 15.9978 4.63556 16.1819 3.6674Z" fill="#0583D2"/>
</g>
<defs>
<clipPath id="clip0_313_4419">
<rect width="16" height="16" fill="white"/>
</clipPath>
</defs>
</svg>
